:version 1.10
:name ASF
:units
  mass 1
  length 1
  angle deg
:documentation
  ASF file generated by Kaydara
:root
  axis xyz
  order  tx ty tz rx ry rz
  position 0 0 0
  orientation 0 0 0
:bonedata
  begin
    id 1
    name RightUpLegDummy
    direction -0.718183 -0.695806 0.00816078
    length 4.904
    axis 0 0 0 xyz
  end
  begin
    id 2
    name RightUpLeg
    direction 3.53373e-006 -0.995788 0.0916898
    length 17.4976
    axis -3.49089 -0.000906625 0.000286804 xyz
    dof rx ry rz
  end
  begin
    id 3
    name RightLeg
    direction 0.00371092 -0.995096 -0.0988419
    length 16.5821
    axis 3.68512 0.0193738 -0.131023 xyz
    dof rx ry rz
  end
  begin
    id 4
    name RightFoot
    direction 0.00079151 -0.46099 0.887405
    length 3.77069
    axis 4.81691e-005 -0.120479 -0.188788 xyz
    dof rx ry rz
  end
  begin
    id 5
    name RightToes
    direction 0 0 0
    length 0
    axis 0 0 0 xyz
    dof rx ry rz
  end
  begin
    id 6
    name SpineDummy
    direction 8.3039e-015 1 4.57515e-016
    length 4.6813
    axis 0 0 0 xyz
  end
  begin
    id 7
    name Spine
    direction -3.15643e-008 0.999988 0.00495137
    length 10.1015
    axis -0.001389 0.000121418 2.40972e-006 xyz
    dof rx ry rz
  end
  begin
    id 8
    name Spine1
    direction 0 0 0
    length 0
    axis -0.001389 0.000121451 1.30017e-006 xyz
    dof rx ry rz
  end
  begin
    id 9
    name HEadDummy
    direction -1.99912e-008 0.999999 0.00127422
    length 3.43865
    axis -0.001389 0.000121451 1.30017e-006 xyz
  end
  begin
    id 10
    name HEad
    direction 0 0 0
    length 0
    axis 0 0 0 xyz
    dof rx ry rz
  end
  begin
    id 11
    name LeftShoulder1Dummy
    direction 0.998891 -0.0402509 -0.0244456
    length 3.5433
    axis -0.001389 0.000121451 1.30017e-006 xyz
  end
  begin
    id 12
    name LeftShoulder1
    direction 0.99951 -0.000327763 0.0313091
    length 4.05031
    axis -0.001389 0.000121451 1.30017e-006 xyz
    dof rx ry rz
  end
  begin
    id 13
    name LeftArm
    direction 0.998561 -0.00100056 -0.0536182
    length 10.3537
    axis -23.1894 0.134784 0.967509 xyz
    dof rx ry rz
  end
  begin
    id 14
    name LeftForeArm
    direction 0.998903 0.00866432 0.046012
    length 8.70632
    axis -9.91835 -0.06569 -0.177794 xyz
    dof rx ry rz
  end
  begin
    id 15
    name LeftHand
    direction 0 0 0
    length 0
    axis 0 0 0 xyz
    dof rx ry rz
  end
  begin
    id 16
    name RightShoulderDummy
    direction -0.998891 -0.0402509 -0.0244414
    length 3.5433
    axis -0.001389 0.000121451 1.30017e-006 xyz
  end
  begin
    id 17
    name RightShoulder
    direction -0.99951 -0.000327807 0.0313133
    length 4.05031
    axis 0.215806 0.000203643 -0.0068026 xyz
    dof rx ry rz
  end
  begin
    id 18
    name RightArm
    direction -0.998573 -0.000999564 -0.053403
    length 10.3947
    axis -23.2009 -0.134239 -0.964101 xyz
    dof rx ry rz
  end
  begin
    id 19
    name RightForeArm
    direction -0.998898 0.00868028 0.0461306
    length 8.68355
    axis -9.92322 0.0658061 0.178868 xyz
    dof rx ry rz
  end
  begin
    id 20
    name RightHand
    direction 0 0 0
    length 0
    axis 0 0 0 xyz
    dof rx ry rz
  end
  begin
    id 21
    name LeftUpLegDummy
    direction 0.718183 -0.695806 0.00816078
    length 4.904
    axis 0 0 0 xyz
  end
  begin
    id 22
    name LeftUpLeg
    direction -6.81752e-006 -0.995793 0.0916337
    length 17.4976
    axis -3.48766 0.00143442 -0.000524262 xyz
    dof rx ry rz
  end
  begin
    id 23
    name LeftLeg
    direction -0.00601358 -0.995091 -0.0987824
    length 16.5821
    axis 3.68178 -0.00654042 -0.000285133 xyz
    dof rx ry rz
  end
  begin
    id 24
    name LeftFoot
    direction -0.00417578 -0.460984 0.887399
    length 3.77069
    axis 1.87233e-006 4.66016e-005 -8.6538e-006 xyz
    dof rx ry rz
  end
  begin
    id 25
    name LeftToes
    direction 0 0 0
    length 0
    axis 0 0 0 xyz
    dof rx ry rz
  end
:hierarchy
  begin
    root RightUpLegDummy SpineDummy LeftUpLegDummy
    RightUpLegDummy RightUpLeg
    RightUpLeg RightLeg
    RightLeg RightFoot
    RightFoot RightToes
    SpineDummy Spine
    Spine Spine1
    Spine1 HEadDummy LeftShoulder1Dummy RightShoulderDummy
    HEadDummy HEad
    LeftShoulder1Dummy LeftShoulder1
    LeftShoulder1 LeftArm
    LeftArm LeftForeArm
    LeftForeArm LeftHand
    RightShoulderDummy RightShoulder
    RightShoulder RightArm
    RightArm RightForeArm
    RightForeArm RightHand
    LeftUpLegDummy LeftUpLeg
    LeftUpLeg LeftLeg
    LeftLeg LeftFoot
    LeftFoot LeftToes
  end

:SAMPLES-PER-SECOND 30
:FULLY-SPECIFIED
:DEGREES
354
root  10.4646 39.8967 12.2031 47.6584 85.615 52.2948
RightUpLeg  -8.91234 -12.5042 -11.3538
RightLeg  20.4438 -4.24609 -1.96492
RightFoot  -2.57205 -0.255425 3.10125
RightToes  0.000481921 0.542163 -0.142578
Spine  16.8993 -0.320041 6.93054
Spine1  15.2416 1.14506 -1.31687
HEad  3.28579 -0.19821 -0.992345
LeftShoulder1  6.51765 -14.6144 -29.9085
LeftArm  -10.4694 -19.8839 -50.4676
LeftForeArm  -164.802 -46.0422 -171.054
LeftHand  -0.25398 0.0180481 5.50724
RightShoulder  3.67104 10.0904 20.6435
RightArm  -0.197154 34.0234 70.098
RightForeArm  170.694 60.0914 162.816
RightHand  -1.04967 4.36359 -12.7917
LeftUpLeg  -4.1875 20.6162 5.22283
LeftLeg  15.2616 5.87804 0.773171
LeftFoot  -2.35601 0.429601 -5.28635
LeftToes  1.06245e-005 4.65869e-005 -8.65517e-006
355
root  10.5293 39.9494 12.0026 26.2267 83.6116 30.1595
RightUpLeg  -9.80997 -10.8719 -10.8225
RightLeg  19.2745 -3.35926 -1.51227
RightFoot  -1.50894 -0.268761 3.00384
RightToes  0.000481921 0.542163 -0.142578
Spine  17.026 -0.280258 8.38868
Spine1  14.9259 1.73327 -2.39517
HEad  3.82182 1.57244 -3.16044
LeftShoulder1  6.93485 -15.1111 -31.207
LeftArm  -13.8915 -13.9799 -41.5413
LeftForeArm  -166.621 -41.407 -172.362
LeftHand  -0.25398 0.0180481 5.50724
RightShoulder  3.53635 9.8128 20.1655
RightArm  2.18127 34.4321 71.4193
RightForeArm  170.088 61.1391 162.045
RightHand  -1.07881 4.48571 -12.9812
LeftUpLeg  -4.08779 21.8947 5.57951
LeftLeg  15.0971 7.46434 0.712066
LeftFoot  -2.71341 0.41988 -5.34858
LeftToes  1.06245e-005 4.65869e-005 -8.65517e-006
356
root  10.594 40.0233 11.7408 16.0385 80.5198 19.34
RightUpLeg  -10.5626 -9.64347 -10.6022
RightLeg  17.6456 -1.53619 -0.74268
RightFoot  -0.201151 -0.286605 2.9228
RightToes  0.000481921 0.542163 -0.142578
Spine  17.218 -0.286946 9.31124
Spine1  14.4493 1.90099 -2.55703
HEad  4.42844 4.28043 -6.1607
LeftShoulder1  6.93038 -15.1314 -31.1408
LeftArm  -17.318 -10.6001 -31.7222
LeftForeArm  -167.963 -39.376 -172.851
LeftHand  -0.25398 0.0180481 5.50724
RightShoulder  3.4521 9.79655 19.5198
RightArm  4.9677 35.458 72.6351
RightForeArm  169.509 62.5764 160.929
RightHand  -1.13033 4.80901 -13.1748
LeftUpLeg  -3.59586 22.2347 5.77273
LeftLeg  14.5538 10.5263 0.57522
LeftFoot  -2.88413 0.411052 -5.32494
LeftToes  1.06245e-005 4.65869e-005 -8.65517e-006
357
root  10.6025 40.0932 11.4642 12.603 77.2626 15.3253
RightUpLeg  -11.3691 -8.76312 -10.6454
RightLeg  15.9855 0.546688 -0.0621186
RightFoot  1.18437 -0.310091 2.89771
RightToes  0.000481921 0.542163 -0.142578
Spine  17.599 -0.315039 8.85321
Spine1  13.7175 1.39601 -1.2761
HEad  4.87905 7.72469 -9.24391
LeftShoulder1  6.26865 -14.5105 -28.6922
LeftArm  -22.4009 -11.2205 -22.3105
LeftForeArm  -168.398 -41.9983 -172.144
LeftHand  -0.25398 0.0180481 5.50724
RightShoulder  3.38837 9.83941 18.9153
RightArm  7.63516 36.8217 73.8169
RightForeArm  167.974 64.2357 159.414
RightHand  -1.16065 5.01694 -13.2617
LeftUpLeg  -3.12019 21.5381 5.58759
LeftLeg  13.7822 14.515 0.33259
LeftFoot  -2.80097 0.403494 -5.17091
LeftToes  1.06245e-005 4.65869e-005 -8.65517e-006
358
root  10.5047 40.125 11.1983 11.1435 74.5901 13.3332
RightUpLeg  -12.3291 -7.8764 -10.58
RightLeg  14.6634 1.99494 0.212589
RightFoot  2.50387 -0.335517 2.9031
RightToes  0.000481921 0.542163 -0.142578
Spine  18.5377 -0.503489 6.86149
Spine1  12.3722 0.0523845 1.58238
HEad  4.9439 11.5205 -11.9653
LeftShoulder1  5.07466 -13.2377 -24.0422
LeftArm  -27.9115 -15.4232 -13.9528
LeftForeArm  -170.258 -51.2687 -169.187
LeftHand  -0.25398 0.0180481 5.50724
RightShoulder  3.38594 10.0413 18.4873
RightArm  9.72878 37.8911 74.804
RightForeArm  165.692 65.7762 157.751
RightHand  -1.13233 4.84644 -13.1534
LeftUpLeg  -3.28702 21.3741 5.16218
LeftLeg  13.5473 17.3163 0.360697
LeftFoot  -2.72614 0.379812 -4.82428
LeftToes  1.06245e-005 4.65869e-005 -8.65517e-006
359
root  10.2818 40.0933 10.9539 9.62088 73.276 11.4263
RightUpLeg  -13.1754 -7.45353 -10.1968
RightLeg  13.8771 2.62716 0.266961
RightFoot  3.51021 -0.36787 3.00444
RightToes  0.000481921 0.542163 -0.142578
Spine  20.3257 -0.87333 3.70375
Spine1  10.2706 -2.10382 6.28233
HEad  4.87449 15.2478 -14.2854
LeftShoulder1  3.9215 -11.9848 -18.7684
LeftArm  -31.4447 -22.5577 -6.29724
LeftForeArm  172.881 -69.2808 -151.255
LeftHand  -0.25398 0.0180481 5.50724
RightShoulder  3.45751 10.556 18.0485
RightArm  10.6503 38.1565 75.0317
RightForeArm  163.215 66.7757 156.446
RightHand  -1.15092 4.77941 -13.4394
LeftUpLeg  -4.62765 24.0524 4.60884
LeftLeg  14.6835 15.9464 1.32204
LeftFoot  -2.93025 0.335314 -4.31895
LeftToes  1.06245e-005 4.65869e-005 -8.65517e-006
360
root  9.96415 39.9838 10.7304 7.29828 74.0147 8.88736
RightUpLeg  -13.6676 -8.47975 -9.63222
RightLeg  13.7906 2.73968 0.574047
RightFoot  3.89922 -0.426007 3.38336
RightToes  0.000481921 0.542163 -0.142578
Spine  22.5862 -1.33794 -0.0933504
Spine1  8.02615 -4.9196 12.9785
HEad  5.07859 18.726 -16.1492
LeftShoulder1  3.07667 -11.9443 -12.929
LeftArm  -32.5878 -31.5689 0.967506
LeftForeArm  74.5129 -76.1307 -46.8829
LeftHand  -0.25398 0.0180481 5.50724
RightShoulder  3.45301 10.987 17.2161
RightArm  10.3617 38.0456 74.7086
RightForeArm  160.004 67.1873 155.613
RightHand  -1.30787 5.20357 -14.6237
LeftUpLeg  -7.32363 27.9193 3.87772
LeftLeg  17.2114 11.3188 3.11546
LeftFoot  -3.45256 0.282095 -3.7895
LeftToes  1.06245e-005 4.65869e-005 -8.65517e-006
361
root  9.63393 39.8093 10.5102 3.79306 76.2495 5.1561
RightUpLeg  -14.0375 -10.9321 -9.06982
RightLeg  14.3721 2.76444 1.26056
RightFoot  3.74079 -0.502808 3.99016
RightToes  0.000481921 0.542163 -0.142578
Spine  24.6732 -1.91321 -3.92072
Spine1  6.4466 -8.06709 20.4763
HEad  5.1425 22.1727 -17.5783
LeftShoulder1  2.14985 -13.3118 -4.99362
LeftArm  -29.9186 -39.1967 6.15804
LeftForeArm  43.117 -44.1664 -6.04909
LeftHand  -0.25398 0.0180481 5.50724
RightShoulder  3.29997 10.9055 16.209
RightArm  9.84504 38.3161 74.9446
RightForeArm  156.668 67.3516 155.027
RightHand  -1.47063 5.58989 -15.8483
LeftUpLeg  -10.528 27.1888 3.63335
LeftLeg  20.4545 9.70083 4.43474
LeftFoot  -4.18665 0.231562 -3.30039
LeftToes  1.06245e-005 4.65869e-005 -8.65517e-006
362
root  9.38702 39.6443 10.2796 0.23291 77.8568 1.14618
RightUpLeg  -14.7377 -13.2723 -8.56522
RightLeg  14.9734 3.19089 1.91195
RightFoot  3.69813 -0.562476 4.44935
RightToes  0.000481921 0.542163 -0.142578
Spine  26.2563 -2.52813 -7.18159
Spine1  5.75175 -10.7946 26.0805
HEad  4.07358 25.7289 -19.0621
LeftShoulder1  1.05173 -14.5409 3.01346
LeftArm  -25.8282 -42.3295 7.55096
LeftForeArm  41.3934 -22.2345 -2.57971
LeftHand  -0.25398 0.0180481 5.50724
RightShoulder  3.26081 10.7406 16.2008
RightArm  9.71516 38.5178 75.5155
RightForeArm  156.418 67.2886 155.07
RightHand  -1.42712 5.30879 -15.7596
LeftUpLeg  -13.0758 25.4602 3.77792
LeftLeg  23.0308 9.76501 4.85026
LeftFoot  -4.92374 0.185856 -2.78816
LeftToes  1.06245e-005 4.65869e-005 -8.65517e-006
363
root  9.28456 39.5739 10.0384 -0.444244 77.1667 -0.213379
RightUpLeg  -15.8193 -13.6351 -8.27969
RightLeg  14.7763 3.88367 2.16263
RightFoot  4.30338 -0.604631 4.61339
RightToes  0.000481921 0.542163 -0.142578
Spine  27.075 -2.93583 -9.1967
Spine1  5.72595 -12.1744 27.7096
HEad  1.76657 28.8431 -21.1326
LeftShoulder1  0.573549 -14.0096 5.84585
LeftArm  -34.2998 -41.9135 6.94927
LeftForeArm  40.0184 -21.1905 -3.29357
LeftHand  -0.25398 0.0180481 5.50724
RightShoulder  3.60597 11.1695 18.0105
RightArm  9.1634 37.2764 74.418
RightForeArm  160.715 66.5337 156.402
RightHand  -1.22129 4.6516 -14.4025
LeftUpLeg  -14.4771 26.9436 3.35966
LeftLeg  23.8872 9.07611 4.70735
LeftFoot  -5.44845 0.153362 -2.34511
LeftToes  1.06245e-005 4.65869e-005 -8.65517e-006
